<svg width="300" height="300" viewBox="0 0 300 300" fill="none" xmlns="http://www.w3.org/2000/svg">
<g clip-path="url(#clip0_6_3)">
<rect width="300" height="300" rx="20" fill="black"/>
<rect x="140" y="92" width="20" height="208" fill="white"/>
<rect width="152.863" height="80.7633" transform="matrix(-0.965926 0.258819 0.258819 0.965926 289.158 -117.564)" fill="white"/>
<path d="M268.48 33.2L274.24 8.336L292 8.336L281.44 33.2L268.48 33.2Z" fill="black"/>
<mask id="path-5-inside-1_6_3" fill="white">
<path d="M160 93.5C160 83.7165 158.073 74.0288 154.329 64.9901C150.585 55.9513 145.097 47.7385 138.179 40.8205C131.261 33.9026 123.049 28.4149 114.01 24.671C104.971 20.927 95.2835 19 85.5 19C75.7165 19 66.0288 20.927 56.9901 24.671C47.9513 28.415 39.7385 33.9026 32.8205 40.8205C25.9026 47.7385 20.4149 55.9513 16.671 64.9901C12.927 74.0288 11 83.7165 11 93.5L85.5 93.5H160Z"/>
</mask>
<path d="M160 93.5C160 83.7165 158.073 74.0288 154.329 64.9901C150.585 55.9513 145.097 47.7385 138.179 40.8205C131.261 33.9026 123.049 28.4149 114.01 24.671C104.971 20.927 95.2835 19 85.5 19C75.7165 19 66.0288 20.927 56.9901 24.671C47.9513 28.415 39.7385 33.9026 32.8205 40.8205C25.9026 47.7385 20.4149 55.9513 16.671 64.9901C12.927 74.0288 11 83.7165 11 93.5L85.5 93.5H160Z" fill="black" stroke="#FAFAFA" stroke-width="40" mask="url(#path-5-inside-1_6_3)"/>
<ellipse cx="85.5" cy="92.5" rx="54.5" ry="53.5" fill="black"/>
</g>
<defs>
<clipPath id="clip0_6_3">
<rect width="300" height="300" rx="20" fill="white"/>
</clipPath>
</defs>
</svg>
