<svg width="300" height="300" viewBox="0 0 300 300" fill="none" xmlns="http://www.w3.org/2000/svg">
<g clip-path="url(#clip0_6_22)">
<rect width="152.863" height="80.7633" transform="matrix(-0.965926 0.258819 0.258819 0.965926 289.158 -117.564)" fill="white"/>
<path d="M49.16 121.024H65.48V136H76.328V152.32H65.48V161.44C65.48 163.168 66.088 164.64 67.304 165.856C68.52 167.072 69.992 167.68 71.72 167.68H76.328V184H71.72C65.512 184 60.2 181.792 55.784 177.376C51.368 172.96 49.16 167.648 49.16 161.44V152.32H41.96V136H49.16V121.024ZM83.0075 136H98.1755V142.24C98.3675 142.048 98.5595 141.856 98.7515 141.664C99.0075 141.408 99.2635 141.152 99.5195 140.896C100.928 139.616 102.528 138.496 104.32 137.536C107.776 135.744 111.776 134.848 116.32 134.848V151.168C112.096 151.168 108.48 152.224 105.472 154.336C102.464 156.448 100.416 159.776 99.3275 164.32V184H83.0075V136ZM121.621 136H137.941V161.344C137.941 163.584 138.645 165.376 140.053 166.72C141.461 168.128 143.221 168.832 145.333 168.832C147.381 168.832 149.109 168.128 150.517 166.72C151.925 165.376 152.629 163.584 152.629 161.344V136H168.949V160.576C168.949 167.488 166.645 173.312 162.037 178.048C157.429 182.784 151.861 185.152 145.333 185.152C138.741 185.152 133.141 182.784 128.533 178.048C123.925 173.312 121.621 167.488 121.621 160.576V136ZM213.037 145.888L197.773 151.168C197.453 150.464 197.037 149.92 196.525 149.536C196.013 149.216 195.405 149.056 194.701 149.056C193.869 149.056 193.197 149.248 192.685 149.632C192.173 150.016 191.949 150.496 192.013 151.072C192.141 152.16 193.581 152.8 196.333 152.992C197.037 152.992 197.581 153.024 197.965 153.088C198.413 153.152 198.701 153.184 198.829 153.184C202.221 153.76 205.069 154.976 207.373 156.832C211.469 160.16 213.517 164.448 213.517 169.696C213.453 175.072 211.309 179.2 207.085 182.08C204.077 184.128 199.949 185.152 194.701 185.152C190.285 185.088 186.253 184.128 182.605 182.272C178.957 180.48 176.493 177.76 175.213 174.112L190.669 168.544C191.309 169.952 192.397 170.656 193.933 170.656C195.021 170.656 195.789 170.496 196.237 170.176C196.685 169.856 196.877 169.408 196.812 168.832C196.685 167.872 194.701 167.2 190.861 166.816C190.477 166.816 190.125 166.816 189.805 166.816C189.549 166.752 189.325 166.688 189.133 166.624C186.957 166.24 185.005 165.6 183.277 164.704C181.613 163.744 180.237 162.528 179.148 161.056C176.845 158.176 175.661 154.784 175.597 150.88C175.597 145.696 177.485 141.728 181.261 138.976C185.037 136.288 189.421 134.912 194.413 134.848C199.213 134.784 203.181 135.744 206.317 137.728C209.261 139.584 211.501 142.304 213.037 145.888ZM224.098 121.024H240.418V136H251.266V152.32H240.418V161.44C240.418 163.168 241.026 164.64 242.242 165.856C243.458 167.072 244.93 167.68 246.658 167.68H251.266V184H246.658C240.45 184 235.138 181.792 230.722 177.376C226.306 172.96 224.098 167.648 224.098 161.44V152.32H216.898V136H224.098V121.024Z" fill="black"/>
<path d="M278.52 116.8L272.76 141.664H255L265.56 116.8H278.52Z" fill="black"/>
</g>
<defs>
<clipPath id="clip0_6_22">
<rect width="300" height="300" rx="20" fill="white"/>
</clipPath>
</defs>
</svg>
